custom-analysis
version=1
nRows=7
nColumns=98
inDegrees=no

This file contains tibia displacement and acting force.

Units are S.I. units (seconds, meters, Newtons, ...)
Angles are in degrees.

endheader
time	APT	SIT	knee_angle	aACL_R_force	pACL_R_force	aPCL_R_force	pPCL_R_force	aMCL_R_force	mMCL_R_force	pMCL_R_force	aLCL_R_force	mLCL_R_force	pLCL_R_force	aPCL_L_force	pPCL_L_force	aMCL_L_force	aLCL_L_force	aACL_R_length	pACL_R_length	aPCL_R_length	pPCL_R_length	aMCL_R_length	mMCL_R_length	pMCL_R_length	aLCL_R_length	mLCL_R_length	pLCL_R_length	aPCL_L_length	pPCL_L_length	aMCL_L_length	aLCL_L_length	aACL_R_strain	pACL_R_strain	aPCL_R_strain	pPCL_R_strain	aMCL_R_strain	mMCL_R_strain	pMCL_R_strain	aLCL_R_strain	mLCL_R_strain	pLCL_R_strain	aPCL_L_strain	pPCL_L_strain	aMCL_L_strain	aLCL_L_strain	femur_lat_meniscii_r.femur_lat_r.force.X	femur_lat_meniscii_r.femur_lat_r.force.Y	femur_lat_meniscii_r.femur_lat_r.force.Z	femur_lat_meniscii_r.femur_lat_r.torque.X	femur_lat_meniscii_r.femur_lat_r.torque.Y	femur_lat_meniscii_r.femur_lat_r.torque.Z	femur_lat_meniscii_r.meniscus_lat_r.force.X	femur_lat_meniscii_r.meniscus_lat_r.force.Y	femur_lat_meniscii_r.meniscus_lat_r.force.Z	femur_lat_meniscii_r.meniscus_lat_r.torque.X	femur_lat_meniscii_r.meniscus_lat_r.torque.Y	femur_lat_meniscii_r.meniscus_lat_r.torque.Z	femur_med_meniscii_r.femur_med_r.force.X	femur_med_meniscii_r.femur_med_r.force.Y	femur_med_meniscii_r.femur_med_r.force.Z	femur_med_meniscii_r.femur_med_r.torque.X	femur_med_meniscii_r.femur_med_r.torque.Y	femur_med_meniscii_r.femur_med_r.torque.Z	femur_med_meniscii_r.meniscus_med_r.force.X	femur_med_meniscii_r.meniscus_med_r.force.Y	femur_med_meniscii_r.meniscus_med_r.force.Z	femur_med_meniscii_r.meniscus_med_r.torque.X	femur_med_meniscii_r.meniscus_med_r.torque.Y	femur_med_meniscii_r.meniscus_med_r.torque.Z	femur_med_tibia_r.tibia_upper_r.force.X	femur_med_tibia_r.tibia_upper_r.force.Y	femur_med_tibia_r.tibia_upper_r.force.Z	femur_med_tibia_r.tibia_upper_r.torque.X	femur_med_tibia_r.tibia_upper_r.torque.Y	femur_med_tibia_r.tibia_upper_r.torque.Z	femur_med_tibia_r.femur_med_r.force.X	femur_med_tibia_r.femur_med_r.force.Y	femur_med_tibia_r.femur_med_r.force.Z	femur_med_tibia_r.femur_med_r.torque.X	femur_med_tibia_r.femur_med_r.torque.Y	femur_med_tibia_r.femur_med_r.torque.Z	femur_lat_tibia_r.tibia_upper_r.force.X	femur_lat_tibia_r.tibia_upper_r.force.Y	femur_lat_tibia_r.tibia_upper_r.force.Z	femur_lat_tibia_r.tibia_upper_r.torque.X	femur_lat_tibia_r.tibia_upper_r.torque.Y	femur_lat_tibia_r.tibia_upper_r.torque.Z	femur_lat_tibia_r.femur_lat_r.force.X	femur_lat_tibia_r.femur_lat_r.force.Y	femur_lat_tibia_r.femur_lat_r.force.Z	femur_lat_tibia_r.femur_lat_r.torque.X	femur_lat_tibia_r.femur_lat_r.torque.Y	femur_lat_tibia_r.femur_lat_r.torque.Z	femur_lat_meniscii_force_r	femur_med_meniscii_force_r	femur_lat_tibia_force_r	femur_med_tibia_force_r
      0.07433928	      0.00320462	      0.00290975	     14.11630904	     -0.03465854	     -4.24896218	      0.00000000	     30.11725310	      0.00000000	    -16.62137398	    -36.74115480	     -7.78301703	      0.00000000	      0.00000000	      0.00000000	      0.00000000	      0.00000001	      0.00000000	      0.03199545	      0.02588642	      0.03085112	      0.03017427	      0.05655058	      0.05999512	      0.06072576	      0.05675853	      0.05432897	      0.05162774	      0.01525851	      0.01651186	      0.06550154	      0.04489616	      0.03192822	      0.03303120	     -0.00785272	      0.00958494	     -0.05791425	      0.00337192	      0.03401723	      0.01395795	     -0.03532816	     -0.01365914	      0.00000079	     -0.32847694	      0.00000060	     -0.00000086	    143.47805078	    489.15425760	    -42.95647412	      5.27665234	      3.48261473	     57.16324380	   -143.47805078	   -489.15425760	     42.95647412	     13.49603088	     -4.02982765	     -0.69221091	     49.14435176	    670.66648228	     68.94557122	    -11.32737234	     -1.19658455	     19.39575197	    -49.14435176	   -670.66648228	    -68.94557122	    -11.90183478	      0.75022109	      1.50399997	      0.00000000	      0.00000000	      0.00000000	      0.00000000	      0.00000000	      0.00000000	      0.00000000	      0.00000000	      0.00000000	      0.00000000	      0.00000000	      0.00000000	      0.00000000	      0.00000000	      0.00000000	      0.00000000	      0.00000000	      0.00000000	      0.00000000	      0.00000000	      0.00000000	      0.00000000	      0.00000000	      0.00000000	    511.56924991	    675.98978509	      0.00000000	      0.00000000
      0.07532286	      0.00327516	      0.00299245	     14.43441000	     -0.62556788	     -5.15921714	      0.00000000	     32.94699047	      0.00000000	    -16.13157794	    -36.98416296	     -7.74381720	      0.00000000	      0.00000000	      0.00000000	      0.00000000	      0.00000001	      0.00000000	      0.03197554	      0.02585553	      0.03089658	      0.03019563	      0.05656404	      0.05997269	      0.06066433	      0.05674881	      0.05429754	      0.05157557	      0.01525851	      0.01651186	      0.06550154	      0.04489616	      0.03128613	      0.03179835	     -0.00639075	      0.01029939	     -0.05768996	      0.00299683	      0.03297122	      0.01378431	     -0.03588616	     -0.01465596	      0.00000079	     -0.32847694	      0.00000060	     -0.00000086	    142.51180846	    492.91114852	    -42.59765231	      5.00548233	      3.46133789	     56.69222073	   -142.51180846	   -492.91114852	     42.59765231	     13.64310105	     -3.99997866	     -0.53557429	     54.11769450	    652.91227875	     73.22526773	    -13.56770074	     -1.32053442	     21.43068492	    -54.11769450	   -652.91227875	    -73.22526773	    -11.38550221	      0.83022068	      1.38304762	      0.00000000	      0.00000000	      0.00000000	      0.00000000	      0.00000000	      0.00000000	      0.00000000	      0.00000000	      0.00000000	      0.00000000	      0.00000000	      0.00000000	      0.00000000	      0.00000000	      0.00000000	      0.00000000	      0.00000000	      0.00000000	      0.00000000	      0.00000000	      0.00000000	      0.00000000	      0.00000000	      0.00000000	    514.86461897	    659.23069440	      0.00000000	      0.00000000
      0.07630645	      0.00334532	      0.00307587	     14.75540401	     -1.26587264	     -6.06972845	      0.00000000	     35.48056441	      0.00000000	    -15.85767517	    -37.43954385	     -7.99914626	      0.00000000	      0.00000000	      0.00000000	      0.00000000	      0.00000001	      0.00000000	      0.03195521	      0.02582423	      0.03094350	      0.03021830	      0.05657862	      0.05995107	      0.06060340	      0.05673926	      0.05426610	      0.05152326	      0.01525851	      0.01651186	      0.06550154	      0.04489616	      0.03063024	      0.03054944	     -0.00488177	      0.01105818	     -0.05744723	      0.00263531	      0.03193361	      0.01361381	     -0.03644446	     -0.01565534	      0.00000079	     -0.32847694	      0.00000060	     -0.00000086	    141.11604746	    492.86682825	    -43.48616262	      5.35301306	      3.42376380	     56.06367543	   -141.11604746	   -492.86682825	     43.48616262	     13.63107052	     -3.94772519	     -0.39733217	     47.51019661	    634.89647325	     72.10512169	    -13.51812253	     -1.16405753	     18.63819829	    -47.51019661	   -634.89647325	    -72.10512169	    -11.09204100	      0.70154064	      1.65001455	      0.00000000	      0.00000000	      0.00000000	      0.00000000	      0.00000000	      0.00000000	      0.00000000	      0.00000000	      0.00000000	      0.00000000	      0.00000000	      0.00000000	      0.00000000	      0.00000000	      0.00000000	      0.00000000	      0.00000000	      0.00000000	      0.00000000	      0.00000000	      0.00000000	      0.00000000	      0.00000000	      0.00000000	    514.51190033	    640.74167892	      0.00000000	      0.00000000
      0.07729003	      0.00341573	      0.00316058	     15.07941837	     -1.87541667	     -6.94729042	      0.00000000	     38.08187033	      0.00000000	    -15.64408131	    -37.93164325	     -8.36950290	      0.00000000	      0.00000000	      0.00000000	      0.00000000	      0.00000001	      0.00000000	      0.03193412	      0.02579217	      0.03099120	      0.03024159	      0.05659391	      0.05992983	      0.06054253	      0.05672936	      0.05423410	      0.05147026	      0.01525851	      0.01651186	      0.06550154	      0.04489616	      0.02995031	      0.02926993	     -0.00334775	      0.01183722	     -0.05719244	      0.00228006	      0.03089718	      0.01343684	     -0.03701272	     -0.01666781	      0.00000079	     -0.32847694	      0.00000060	     -0.00000086	    140.60479817	    489.54488828	    -42.78744974	      5.12745299	      3.41935029	     55.82845429	   -140.60479817	   -489.54488828	     42.78744974	     13.56866486	     -3.93794840	     -0.32416891	     48.81484075	    617.58733126	     73.53028282	    -14.58076214	     -1.18001196	     19.17738108	    -48.81484075	   -617.58733126	    -73.53028282	    -10.65773261	      0.69934346	      1.61497576	      0.00000000	      0.00000000	      0.00000000	      0.00000000	      0.00000000	      0.00000000	      0.00000000	      0.00000000	      0.00000000	      0.00000000	      0.00000000	      0.00000000	      0.00000000	      0.00000000	      0.00000000	      0.00000000	      0.00000000	      0.00000000	      0.00000000	      0.00000000	      0.00000000	      0.00000000	      0.00000000	      0.00000000	    511.13077854	    623.86192615	      0.00000000	      0.00000000
      0.07827362	      0.00348593	      0.00324697	     15.40640904	     -2.59754549	     -7.96249959	      0.00000000	     40.31726393	      0.00000000	    -15.83227778	    -38.79051027	     -9.36606102	      0.00000000	      0.00000000	      0.00000000	      0.00000000	      0.00000001	      0.00000000	      0.03191197	      0.02575906	      0.03103952	      0.03026534	      0.05660938	      0.05990847	      0.06048123	      0.05671870	      0.05420115	      0.05141621	      0.01525851	      0.01651186	      0.06550154	      0.04489616	      0.02923564	      0.02794890	     -0.00179378	      0.01263206	     -0.05693480	      0.00192272	      0.02985346	      0.01324643	     -0.03759771	     -0.01770044	      0.00000079	     -0.32847694	      0.00000060	     -0.00000086	    141.43886456	    489.16572967	    -41.29475647	      4.49138276	      3.45120096	     56.14600673	   -141.43886456	   -489.16572967	     41.29475647	     13.62661369	     -3.97364349	     -0.27867472	     47.24240393	    597.78767147	     72.12021694	    -14.49968180	     -1.14462611	     18.50010887	    -47.24240393	   -597.78767147	    -72.12021694	    -10.29316820	      0.66898749	      1.68292443	      0.00000000	      0.00000000	      0.00000000	      0.00000000	      0.00000000	      0.00000000	      0.00000000	      0.00000000	      0.00000000	      0.00000000	      0.00000000	      0.00000000	      0.00000000	      0.00000000	      0.00000000	      0.00000000	      0.00000000	      0.00000000	      0.00000000	      0.00000000	      0.00000000	      0.00000000	      0.00000000	      0.00000000	    510.87505361	    603.97290550	      0.00000000	      0.00000000
      0.07925720	      0.00355660	      0.00333513	     15.73652178	     -3.31833545	     -8.95747960	      0.00000000	     43.10761941	      0.00000000	    -15.94583293	    -39.55369888	    -10.11533179	      0.00000000	      0.00000000	      0.00000000	      0.00000000	      0.00000001	      0.00000000	      0.03188883	      0.02572489	      0.03108826	      0.03028943	      0.05662500	      0.05988696	      0.06041953	      0.05670716	      0.05416717	      0.05136101	      0.01525851	      0.01651186	      0.06550154	      0.04489616	      0.02848954	      0.02658522	     -0.00022642	      0.01343808	     -0.05667457	      0.00156306	      0.02880280	      0.01304029	     -0.03820108	     -0.01875506	      0.00000079	     -0.32847694	      0.00000060	     -0.00000086	    141.93836750	    492.59762553	    -41.01498386	      4.26592243	      3.46697729	     56.29984906	   -141.93836750	   -492.59762553	     41.01498386	     13.75567037	     -3.98735981	     -0.18337521	     44.69870214	    587.59072185	     71.44343765	    -14.48395733	     -1.05194159	     17.38332169	    -44.69870214	   -587.59072185	    -71.44343765	    -10.09940294	      0.58350828	      1.84995443	      0.00000000	      0.00000000	      0.00000000	      0.00000000	      0.00000000	      0.00000000	      0.00000000	      0.00000000	      0.00000000	      0.00000000	      0.00000000	      0.00000000	      0.00000000	      0.00000000	      0.00000000	      0.00000000	      0.00000000	      0.00000000	      0.00000000	      0.00000000	      0.00000000	      0.00000000	      0.00000000	      0.00000000	    514.27730822	    593.60339888	      0.00000000	      0.00000000
      0.08067101	      0.00366045	      0.00346389	     16.21671924	     -3.61438968	     -9.64933979	     18.24637119	     46.42835843	      0.00000000	    -16.00729301	    -40.47703885	    -11.63384287	      0.00000000	      0.00000000	      0.00000000	      0.00000000	      0.00000001	      0.00000000	      0.03185575	      0.02567566	      0.03115903	      0.03032478	      0.05664861	      0.05985673	      0.06033110	      0.05668965	      0.05411720	      0.05128032	      0.01525851	      0.01651186	      0.06550154	      0.04489616	      0.02742244	      0.02462071	      0.00204953	      0.01462080	     -0.05628122	      0.00105740	      0.02729696	      0.01272754	     -0.03908839	     -0.02029664	      0.00000079	     -0.32847694	      0.00000060	     -0.00000086	    149.24099796	    499.34441635	    -40.84432006	      4.00488720	      3.66286774	     59.26859147	   -149.24099796	   -499.34441635	     40.84432006	     13.97399619	     -4.20993400	     -0.26376507	     52.97883542	    569.94408516	     74.78956311	    -16.24726457	     -1.22805024	     20.69759909	    -52.97883542	   -569.94408516	    -74.78956311	     -9.70349338	      0.69770668	      1.72674783	      0.00000000	      0.00000000	      0.00000000	      0.00000000	      0.00000000	      0.00000000	      0.00000000	      0.00000000	      0.00000000	      0.00000000	      0.00000000	      0.00000000	      0.00000000	      0.00000000	      0.00000000	      0.00000000	      0.00000000	      0.00000000	      0.00000000	      0.00000000	      0.00000000	      0.00000000	      0.00000000	      0.00000000	    522.76761577	    577.26639948	      0.00000000	      0.00000000
